<mxfile host="drawio-plugin" modified="2024-01-15T21:11:37.284Z" agent="5.0 (Macintosh; Intel Mac OS X 10_15_7) AppleWebKit/537.36 (KHTML, like Gecko) Chrome/111.0.0.0 Safari/537.36" etag="8DzR1dR_9tGwTzy8M5Ke" version="20.5.3" type="embed"><diagram name="Страница — 1" id="Lm9bjzSd8ySWWQZWOGXw"><mxGraphModel dx="1700" dy="507" grid="1" gridSize="10" guides="1" tooltips="1" connect="1" arrows="1" fold="1" page="1" pageScale="1" pageWidth="827" pageHeight="1169" math="0" shadow="0"><root><mxCell id="0"/><mxCell id="1" parent="0"/><mxCell id="13" value="" style="edgeStyle=orthogonalEdgeStyle;rounded=0;orthogonalLoop=1;jettySize=auto;html=1;entryX=0;entryY=0.118;entryDx=0;entryDy=0;entryPerimeter=0;" edge="1" parent="1" source="3" target="15"><mxGeometry relative="1" as="geometry"><mxPoint x="240" y="240" as="targetPoint"/></mxGeometry></mxCell><mxCell id="25" style="edgeStyle=orthogonalEdgeStyle;rounded=0;orthogonalLoop=1;jettySize=auto;html=1;exitX=0.25;exitY=1;exitDx=0;exitDy=0;entryX=0;entryY=0;entryDx=0;entryDy=0;" edge="1" parent="1" source="3" target="23"><mxGeometry relative="1" as="geometry"/></mxCell><mxCell id="41" style="edgeStyle=orthogonalEdgeStyle;rounded=0;orthogonalLoop=1;jettySize=auto;html=1;exitX=0.25;exitY=0;exitDx=0;exitDy=0;entryX=0.313;entryY=1;entryDx=0;entryDy=0;entryPerimeter=0;" edge="1" parent="1" source="3" target="47"><mxGeometry relative="1" as="geometry"><mxPoint x="90" y="140" as="targetPoint"/></mxGeometry></mxCell><mxCell id="49" style="edgeStyle=orthogonalEdgeStyle;rounded=0;orthogonalLoop=1;jettySize=auto;html=1;exitX=0;exitY=0.5;exitDx=0;exitDy=0;" edge="1" parent="1" source="3"><mxGeometry relative="1" as="geometry"><mxPoint x="-10" y="240" as="targetPoint"/></mxGeometry></mxCell><mxCell id="3" value="Runner" style="rounded=0;whiteSpace=wrap;html=1;" vertex="1" parent="1"><mxGeometry x="60" y="210" width="120" height="60" as="geometry"/></mxCell><mxCell id="21" style="edgeStyle=orthogonalEdgeStyle;rounded=0;orthogonalLoop=1;jettySize=auto;html=1;exitX=0.25;exitY=0;exitDx=0;exitDy=0;entryX=0.75;entryY=0;entryDx=0;entryDy=0;" edge="1" parent="1" source="14" target="3"><mxGeometry relative="1" as="geometry"/></mxCell><mxCell id="14" value="ValidationCheck" style="swimlane;fontStyle=1;align=center;verticalAlign=top;childLayout=stackLayout;horizontal=1;startSize=26;horizontalStack=0;resizeParent=1;resizeParentMax=0;resizeLast=0;collapsible=1;marginBottom=0;" vertex="1" parent="1"><mxGeometry x="330" y="210" width="160" height="60" as="geometry"/></mxCell><mxCell id="15" value="+ doValidationCheck" style="text;strokeColor=none;fillColor=none;align=left;verticalAlign=top;spacingLeft=4;spacingRight=4;overflow=hidden;rotatable=0;points=[[0,0.5],[1,0.5]];portConstraint=eastwest;" vertex="1" parent="14"><mxGeometry y="26" width="160" height="34" as="geometry"/></mxCell><mxCell id="22" value="return true or false" style="text;html=1;align=center;verticalAlign=middle;resizable=0;points=[];autosize=1;strokeColor=none;fillColor=none;" vertex="1" parent="1"><mxGeometry x="140" y="160" width="120" height="30" as="geometry"/></mxCell><mxCell id="29" style="edgeStyle=orthogonalEdgeStyle;rounded=0;orthogonalLoop=1;jettySize=auto;html=1;exitX=1;exitY=0;exitDx=0;exitDy=0;entryX=0.75;entryY=1;entryDx=0;entryDy=0;" edge="1" parent="1" source="23" target="3"><mxGeometry relative="1" as="geometry"><mxPoint x="180" y="330" as="targetPoint"/></mxGeometry></mxCell><mxCell id="23" value="PathCheck" style="swimlane;fontStyle=1;align=center;verticalAlign=top;childLayout=stackLayout;horizontal=1;startSize=26;horizontalStack=0;resizeParent=1;resizeParentMax=0;resizeLast=0;collapsible=1;marginBottom=0;" vertex="1" parent="1"><mxGeometry x="60" y="360" width="120" height="60" as="geometry"/></mxCell><mxCell id="24" value="+ PathFileCheck" style="text;strokeColor=none;fillColor=none;align=left;verticalAlign=top;spacingLeft=4;spacingRight=4;overflow=hidden;rotatable=0;points=[[0,0.5],[1,0.5]];portConstraint=eastwest;" vertex="1" parent="23"><mxGeometry y="26" width="120" height="34" as="geometry"/></mxCell><mxCell id="26" value="if validation true" style="text;html=1;align=center;verticalAlign=middle;resizable=0;points=[];autosize=1;strokeColor=none;fillColor=none;" vertex="1" parent="1"><mxGeometry x="-10" y="290" width="110" height="30" as="geometry"/></mxCell><mxCell id="30" value="return path or null" style="text;html=1;align=center;verticalAlign=middle;resizable=0;points=[];autosize=1;strokeColor=none;fillColor=none;" vertex="1" parent="1"><mxGeometry x="140" y="290" width="120" height="30" as="geometry"/></mxCell><mxCell id="34" value="CreatingDirectoryFile" style="swimlane;fontStyle=1;align=center;verticalAlign=top;childLayout=stackLayout;horizontal=1;startSize=26;horizontalStack=0;resizeParent=1;resizeParentMax=0;resizeLast=0;collapsible=1;marginBottom=0;" vertex="1" parent="1"><mxGeometry x="370" y="360" width="160" height="120" as="geometry"/></mxCell><mxCell id="35" value="+ doCreating" style="text;strokeColor=none;fillColor=none;align=left;verticalAlign=top;spacingLeft=4;spacingRight=4;overflow=hidden;rotatable=0;points=[[0,0.5],[1,0.5]];portConstraint=eastwest;" vertex="1" parent="34"><mxGeometry y="26" width="160" height="26" as="geometry"/></mxCell><mxCell id="36" value="" style="line;strokeWidth=1;fillColor=none;align=left;verticalAlign=middle;spacingTop=-1;spacingLeft=3;spacingRight=3;rotatable=0;labelPosition=right;points=[];portConstraint=eastwest;strokeColor=inherit;" vertex="1" parent="34"><mxGeometry y="52" width="160" height="8" as="geometry"/></mxCell><mxCell id="37" value="+ doCreatingDirectory" style="text;strokeColor=none;fillColor=none;align=left;verticalAlign=top;spacingLeft=4;spacingRight=4;overflow=hidden;rotatable=0;points=[[0,0.5],[1,0.5]];portConstraint=eastwest;" vertex="1" parent="34"><mxGeometry y="60" width="160" height="30" as="geometry"/></mxCell><mxCell id="39" value="+ doCreatingFile" style="text;strokeColor=none;fillColor=none;align=left;verticalAlign=top;spacingLeft=4;spacingRight=4;overflow=hidden;rotatable=0;points=[[0,0.5],[1,0.5]];portConstraint=eastwest;" vertex="1" parent="34"><mxGeometry y="90" width="160" height="30" as="geometry"/></mxCell><mxCell id="38" value="" style="edgeStyle=orthogonalEdgeStyle;rounded=0;orthogonalLoop=1;jettySize=auto;html=1;entryX=0;entryY=0.25;entryDx=0;entryDy=0;exitX=1;exitY=0.25;exitDx=0;exitDy=0;" edge="1" parent="1" source="23" target="34"><mxGeometry relative="1" as="geometry"/></mxCell><mxCell id="46" value="CreateStatistics" style="swimlane;fontStyle=1;align=center;verticalAlign=top;childLayout=stackLayout;horizontal=1;startSize=26;horizontalStack=0;resizeParent=1;resizeParentMax=0;resizeLast=0;collapsible=1;marginBottom=0;" vertex="1" parent="1"><mxGeometry x="40" y="60" width="160" height="60" as="geometry"/></mxCell><mxCell id="47" value="+ visitfile" style="text;strokeColor=none;fillColor=none;align=left;verticalAlign=top;spacingLeft=4;spacingRight=4;overflow=hidden;rotatable=0;points=[[0,0.5],[1,0.5]];portConstraint=eastwest;" vertex="1" parent="46"><mxGeometry y="26" width="160" height="34" as="geometry"/></mxCell><mxCell id="50" value="WriteFile" style="swimlane;fontStyle=1;align=center;verticalAlign=top;childLayout=stackLayout;horizontal=1;startSize=26;horizontalStack=0;resizeParent=1;resizeParentMax=0;resizeLast=0;collapsible=1;marginBottom=0;" vertex="1" parent="1"><mxGeometry x="-170" y="210" width="160" height="60" as="geometry"/></mxCell><mxCell id="51" value="+ doWriteFile" style="text;strokeColor=none;fillColor=none;align=left;verticalAlign=top;spacingLeft=4;spacingRight=4;overflow=hidden;rotatable=0;points=[[0,0.5],[1,0.5]];portConstraint=eastwest;" vertex="1" parent="50"><mxGeometry y="26" width="160" height="34" as="geometry"/></mxCell><mxCell id="54" value="Logger" style="swimlane;fontStyle=1;align=center;verticalAlign=top;childLayout=stackLayout;horizontal=1;startSize=26;horizontalStack=0;resizeParent=1;resizeParentMax=0;resizeLast=0;collapsible=1;marginBottom=0;" vertex="1" parent="1"><mxGeometry x="-240" y="40" width="160" height="86" as="geometry"/></mxCell><mxCell id="57" value="+ errorLogger" style="text;strokeColor=none;fillColor=none;align=left;verticalAlign=top;spacingLeft=4;spacingRight=4;overflow=hidden;rotatable=0;points=[[0,0.5],[1,0.5]];portConstraint=eastwest;" vertex="1" parent="54"><mxGeometry y="26" width="160" height="30" as="geometry"/></mxCell><mxCell id="58" value="+ executionLogger" style="text;strokeColor=none;fillColor=none;align=left;verticalAlign=top;spacingLeft=4;spacingRight=4;overflow=hidden;rotatable=0;points=[[0,0.5],[1,0.5]];portConstraint=eastwest;" vertex="1" parent="54"><mxGeometry y="56" width="160" height="30" as="geometry"/></mxCell><mxCell id="59" value="Exception" style="swimlane;fontStyle=1;align=center;verticalAlign=top;childLayout=stackLayout;horizontal=1;startSize=26;horizontalStack=0;resizeParent=1;resizeParentMax=0;resizeLast=0;collapsible=1;marginBottom=0;" vertex="1" parent="1"><mxGeometry x="310" y="10" width="160" height="140" as="geometry"/></mxCell><mxCell id="60" value="+ WrongLoginException" style="text;strokeColor=none;fillColor=none;align=left;verticalAlign=top;spacingLeft=4;spacingRight=4;overflow=hidden;rotatable=0;points=[[0,0.5],[1,0.5]];portConstraint=eastwest;" vertex="1" parent="59"><mxGeometry y="26" width="160" height="26" as="geometry"/></mxCell><mxCell id="62" value="+ WrongPasswordException" style="text;strokeColor=none;fillColor=none;align=left;verticalAlign=top;spacingLeft=4;spacingRight=4;overflow=hidden;rotatable=0;points=[[0,0.5],[1,0.5]];portConstraint=eastwest;" vertex="1" parent="59"><mxGeometry y="52" width="160" height="30" as="geometry"/></mxCell><mxCell id="64" value="&lt;span style=&quot;text-align: left;&quot;&gt;+ WrongSessionException&lt;/span&gt;" style="text;html=1;strokeColor=none;fillColor=none;align=center;verticalAlign=middle;whiteSpace=wrap;rounded=0;" vertex="1" parent="59"><mxGeometry y="82" width="160" height="30" as="geometry"/></mxCell><mxCell id="63" value="+ WrongPathException" style="text;strokeColor=none;fillColor=none;align=left;verticalAlign=top;spacingLeft=4;spacingRight=4;overflow=hidden;rotatable=0;points=[[0,0.5],[1,0.5]];portConstraint=eastwest;" vertex="1" parent="59"><mxGeometry y="112" width="160" height="28" as="geometry"/></mxCell></root></mxGraphModel></diagram></mxfile>